<?xml version="1.0" standalone="no"?>
<!DOCTYPE svg PUBLIC "-//W3C//DTD SVG 20010904//EN"
 "http://www.w3.org/TR/2001/REC-SVG-20010904/DTD/svg10.dtd">
<svg version="1.0" xmlns="http://www.w3.org/2000/svg"
 width="300.000000pt" height="300.000000pt" viewBox="0 0 300.000000 300.000000"
 preserveAspectRatio="xMidYMid meet">
<metadata>
Created by potrace 1.14, written by Peter Selinger 2001-2017
</metadata>
<g transform="translate(0.000000,300.000000) scale(0.100000,-0.100000)"
fill="#000000" stroke="none">
<path d="M1350 2994 c-14 -3 -67 -11 -119 -20 -382 -62 -758 -308 -976 -639
-131 -199 -204 -388 -240 -624 -19 -121 -13 -367 13 -497 124 -618 603 -1085
1223 -1192 89 -16 149 -19 274 -17 88 2 174 6 190 9 17 4 65 13 108 22 145 29
309 94 446 176 365 221 618 580 702 999 35 170 33 426 -5 609 -20 98 -103 330
-127 354 -13 15 -9 -320 6 -394 37 -184 37 -366 0 -561 -14 -76 -61 -215 -101
-299 -229 -484 -708 -790 -1243 -792 -89 -1 -195 7 -231 17 -8 2 -26 6 -40 9
-180 32 -393 127 -545 241 -267 201 -445 471 -519 787 -14 57 -28 130 -31 163
-8 74 -8 266 0 320 26 168 71 319 134 443 33 65 109 193 120 202 3 3 19 23 36
45 16 22 68 78 116 125 344 341 870 476 1329 343 55 -16 367 -26 352 -11 -4 4
-38 22 -77 41 -120 59 -241 98 -400 127 -60 12 -348 21 -395 14z"/>
<path d="M1002 2585 l-112 -115 0 -165 0 -165 172 0 171 0 54 55 54 55 138 0
137 0 37 38 36 37 241 -1 241 0 51 -51 51 -51 0 -355 0 -355 -33 -34 -33 -33
-176 -2 c-97 0 -179 -1 -183 -2 -4 -1 -22 -15 -39 -32 l-32 -31 -186 0 c-102
0 -200 1 -217 1 l-32 1 0 318 c0 174 -1 329 -1 343 l-1 25 -112 1 -111 0 -114
-113 -113 -114 0 -424 0 -424 804 0 804 0 114 114 113 115 0 625 0 625 -112
114 -112 115 -694 0 -694 0 -111 -115z"/>
<path d="M602 2424 c-36 -25 -27 -55 36 -117 60 -60 80 -67 106 -41 26 25 19
46 -33 101 -64 67 -82 76 -109 57z"/>
<path d="M474 2162 c-40 -28 -132 -249 -163 -395 -29 -135 -31 -205 -6 -223
24 -18 29 -18 53 4 15 12 22 34 26 77 15 152 48 262 128 419 35 70 38 82 27
103 -12 23 -43 30 -65 15z"/>
<path d="M669 2082 c-32 -27 -30 -78 4 -108 23 -19 32 -21 59 -13 40 11 58 33
58 71 0 59 -72 89 -121 50z m81 -47 c0 -2 -7 -10 -15 -19 -17 -16 -45 -11 -45
8 0 23 22 36 42 25 10 -5 18 -11 18 -14z"/>
<path d="M567 1772 c-33 -36 -52 -269 -33 -402 13 -92 59 -238 95 -304 33 -59
110 -41 91 22 -4 15 -18 49 -30 75 -44 99 -69 227 -68 352 1 64 7 142 14 173
11 49 11 60 -2 79 -17 28 -45 30 -67 5z"/>
<path d="M336 1254 c-32 -31 -14 -76 30 -76 46 0 62 40 31 80 -13 17 -42 15
-61 -4z"/>
<path d="M447 972 c-10 -10 -17 -25 -17 -34 0 -26 115 -190 191 -272 44 -47
75 -89 77 -105 2 -14 13 -36 25 -48 82 -82 210 35 134 123 -17 19 -33 27 -62
28 -31 1 -47 9 -80 41 -58 58 -117 131 -160 200 -55 88 -77 101 -108 67z m373
-387 c0 -32 -45 -49 -56 -20 -10 24 14 47 37 34 10 -5 19 -11 19 -14z"/>
<path d="M1035 870 c-24 -10 -100 -88 -108 -113 -9 -26 28 -60 56 -51 31 9
116 102 112 122 -2 9 -4 20 -4 24 -2 14 -37 25 -56 18z"/>
<path d="M1910 742 c-74 -72 -78 -104 -17 -125 25 -9 149 115 140 140 -21 60
-49 56 -123 -15z"/>
<path d="M2250 780 c-11 -11 -21 -26 -21 -32 -5 -54 24 -91 71 -91 47 0 76 37
71 91 -2 23 -41 52 -71 52 -17 0 -39 -9 -50 -20z m65 -69 c-13 -14 -17 -14
-31 0 -14 15 -14 18 2 34 17 16 18 16 31 -1 11 -15 11 -20 -2 -33z"/>
<path d="M1520 653 c-14 -9 -28 -21 -32 -26 -8 -13 -113 -3 -207 20 -71 17
-73 17 -87 -2 -18 -24 -18 -49 -1 -63 27 -22 171 -54 257 -56 28 -1 51 -8 62
-18 21 -21 85 -24 109 -5 47 36 51 97 10 138 -34 33 -74 38 -111 12z m70 -58
c10 -12 10 -18 0 -30 -16 -19 -39 -19 -46 0 -6 15 11 45 26 45 4 0 13 -7 20
-15z"/>
<path d="M1993 485 c-141 -68 -358 -115 -495 -109 -66 3 -192 15 -199 19 -3 2
-19 6 -35 9 -16 3 -73 20 -126 37 -107 36 -128 33 -128 -21 0 -31 13 -39 120
-76 165 -56 393 -75 565 -48 180 29 435 127 450 173 9 29 -12 61 -38 60 -12 0
-63 -20 -114 -44z"/>
</g>
</svg>
