<svg width="57" height="57" viewBox="0 0 57 57" fill="none" xmlns="http://www.w3.org/2000/svg">
<path fill-rule="evenodd" clip-rule="evenodd" d="M53.8147 15.3922C59.3746 26.1243 57.6552 39.6502 48.653 48.6525C37.5229 59.7827 19.4776 59.7827 8.34756 48.6525C-2.78252 37.5223 -2.78252 19.4762 8.34756 8.34593C17.6111 -0.917151 31.6625 -2.46811 42.5329 3.68727H36.6147C33.9831 2.8287 31.2418 2.39942 28.5 2.39942C21.8208 2.39942 15.141 4.948 10.0456 10.0434C4.94969 15.14 2.40171 21.8193 2.40171 28.4986C2.40171 35.1779 4.94969 41.8572 10.0451 46.9533C15.1416 52.0499 21.8214 54.5979 28.5006 54.5979C35.1798 54.5979 41.8601 52.0499 46.9555 46.9538C52.0515 41.8584 54.5994 35.1779 54.5994 28.4986C54.5994 26.3603 54.3381 24.222 53.8159 22.1355L53.8153 15.3916L53.8147 15.3922ZM11.2325 12.2978C10.8811 11.9464 10.8811 11.3757 11.2325 11.0243C11.5839 10.673 12.1545 10.673 12.5059 11.0243L14.1878 12.7057C14.5392 13.0571 14.5392 13.6277 14.1878 13.9791C13.8364 14.3305 13.2658 14.3305 12.9144 13.9791L11.2331 12.2978H11.2325ZM37.1035 42.0794C37.4548 41.728 38.0255 41.728 38.3769 42.0794C38.7283 42.4308 38.7283 43.0014 38.3769 43.3528L36.6955 45.0342C36.3441 45.3856 35.7735 45.3856 35.4221 45.0342C35.0707 44.6828 35.0707 44.1121 35.4221 43.7607L37.104 42.0794H37.1035ZM19.3086 40.653C19.66 40.3034 20.2289 40.3051 20.5785 40.6565C20.9282 41.0079 20.9265 41.5768 20.5751 41.9265L19.1061 43.3955C18.7547 43.7452 18.1858 43.7434 17.8361 43.392C17.4865 43.0407 17.4882 42.4717 17.8396 42.1221L19.3086 40.653ZM43.6978 41.754C44.471 41.754 45.0976 42.3806 45.0976 43.1537C45.0976 43.9269 44.471 44.5535 43.6978 44.5535C42.9247 44.5535 42.2981 43.9269 42.2981 43.1537C42.2981 42.3806 42.9247 41.754 43.6978 41.754ZM44.0515 42.7995C43.9633 42.71 43.8369 42.6546 43.6978 42.6546C43.5599 42.6546 43.4347 42.7106 43.3447 42.8006C43.2547 42.8906 43.1987 43.0158 43.1987 43.1537C43.1987 43.2928 43.2541 43.4192 43.343 43.5086C43.4347 43.5969 43.5599 43.6528 43.6978 43.6528C43.8369 43.6528 43.9627 43.5975 44.0527 43.5086C44.1415 43.4192 44.1969 43.2934 44.1969 43.1537C44.1969 43.0158 44.141 42.8906 44.0515 42.8V42.7995ZM14.9691 44.2922C15.939 44.2922 16.7248 45.0786 16.7248 46.048C16.7248 47.0179 15.9384 47.8037 14.9691 47.8037C13.9992 47.8037 13.2133 47.0173 13.2133 46.048C13.2133 45.9429 13.2225 45.8402 13.2404 45.7398C13.2185 45.7231 13.1966 45.7064 13.1758 45.6873C12.1932 44.808 11.2914 43.8542 10.4807 42.8375C9.66598 41.8157 8.93609 40.724 8.30083 39.5758C8.06253 39.1407 8.2212 38.5937 8.65625 38.3554C9.0913 38.1171 9.63828 38.2758 9.87658 38.7109C10.4622 39.7691 11.135 40.7759 11.8874 41.7193C12.6432 42.6673 13.4741 43.5484 14.3713 44.351L14.4065 44.3845C14.5831 44.325 14.7723 44.2927 14.9685 44.2927L14.9691 44.2922ZM15.3637 45.6533C15.2616 45.5552 15.1225 45.4929 14.9691 45.4929C14.8156 45.4929 14.6765 45.5552 14.5761 45.655C14.4763 45.7548 14.414 45.8945 14.414 46.048C14.414 46.2014 14.4763 46.3405 14.5761 46.4409C14.6737 46.5419 14.8139 46.603 14.9691 46.603C15.1249 46.603 15.2639 46.5413 15.3637 46.4426C15.4624 46.3428 15.5241 46.2032 15.5241 46.048C15.5241 45.8927 15.4624 45.7531 15.3637 45.6533ZM29.8075 44.2396C30.7774 44.2396 31.5632 45.0261 31.5632 45.9954C31.5632 46.9654 30.7768 47.7512 29.8075 47.7512C29.2409 47.7512 28.7366 47.4829 28.4152 47.0658C28.3759 47.0704 28.3361 47.0721 28.2952 47.071C27.3968 47.0485 26.5088 46.9625 25.6399 46.8165C24.7715 46.6699 23.9049 46.4593 23.0486 46.1864C22.5766 46.037 22.3153 45.5327 22.4647 45.0607C22.6142 44.5887 23.1184 44.3274 23.5904 44.4768C24.3503 44.7191 25.1344 44.909 25.9353 45.044C26.6917 45.1709 27.451 45.2482 28.2063 45.2736C28.4815 44.6643 29.0949 44.2402 29.8069 44.2402L29.8075 44.2396ZM30.2021 45.6008C30.1 45.5027 29.9609 45.4404 29.8075 45.4404C29.654 45.4404 29.5149 45.5027 29.4145 45.6025C29.3147 45.7023 29.2524 45.842 29.2524 45.9954C29.2524 46.1489 29.3147 46.288 29.4145 46.3884C29.512 46.4894 29.6522 46.5505 29.8075 46.5505C29.9632 46.5505 30.1023 46.4888 30.2021 46.3901C30.3008 46.2903 30.3625 46.1507 30.3625 45.9954C30.3625 45.8402 30.3008 45.7006 30.2021 45.6008ZM13.6351 17.043C14.4082 17.043 15.0348 17.6696 15.0348 18.4428C15.0348 19.2159 14.4082 19.8426 13.6351 19.8426C12.8619 19.8426 12.2353 19.2159 12.2353 18.4428C12.2353 17.6696 12.8619 17.043 13.6351 17.043ZM13.9888 18.0885C13.9005 17.9991 13.7741 17.9437 13.6351 17.9437C13.4972 17.9437 13.372 17.9996 13.282 18.0896C13.1919 18.1797 13.136 18.3049 13.136 18.4428C13.136 18.5818 13.1914 18.7082 13.2802 18.7976C13.372 18.8859 13.4972 18.9419 13.6351 18.9419C13.7741 18.9419 13.9005 18.8865 13.9899 18.7976C14.0788 18.7082 14.1342 18.5824 14.1342 18.4428C14.1342 18.3049 14.0782 18.1797 13.9888 18.0891V18.0885ZM6.97029 32.8902C7.46766 32.8902 7.87097 33.2935 7.87097 33.7908C7.87097 34.2882 7.46766 34.6915 6.97029 34.6915C6.47235 34.6915 6.06904 34.2882 6.06904 33.7908C6.06904 33.2935 6.47236 32.8902 6.96972 32.8902H6.97029ZM7.21436 27.01C7.18724 27.5051 6.76316 27.8853 6.2681 27.8576C5.77305 27.8305 5.39281 27.4064 5.42051 26.9113C5.53013 25.0147 5.86998 23.1447 6.4285 21.3433C6.9876 19.5362 7.76365 17.8011 8.74222 16.1792C8.99841 15.754 9.55174 15.6166 9.97698 15.8728C10.4022 16.129 10.5395 16.6824 10.2834 17.1076C9.37518 18.6136 8.65798 20.2136 8.14504 21.8707C7.63037 23.5336 7.31591 25.2594 7.21494 27.0094L7.21436 27.01ZM13.6985 36.1756C13.9299 36.6147 13.7614 37.1582 13.3223 37.389C12.8833 37.6204 12.3397 37.4519 12.1089 37.0128C11.3998 35.6632 10.8598 34.2363 10.4974 32.7661C10.1333 31.2919 9.94755 29.7784 9.94755 28.2598C9.94755 27.4952 9.99486 26.7284 10.0883 25.9651C10.1812 25.2075 10.322 24.451 10.5095 23.7015C10.6301 23.2197 11.1183 22.9266 11.6 23.0472C12.0818 23.1678 12.3749 23.6559 12.2543 24.1377C12.087 24.807 11.9607 25.4908 11.8753 26.1832C11.791 26.8686 11.7489 27.5628 11.7489 28.2603C11.7489 29.6457 11.9162 31.0149 12.2422 32.338C12.57 33.6662 13.0581 34.9552 13.6991 36.1761L13.6985 36.1756ZM39.4956 46.9913C39.9267 46.7444 40.4771 46.8944 40.7235 47.3254C40.9704 47.7564 40.8204 48.3069 40.3894 48.5533C38.6238 49.5647 36.7359 50.3379 34.7776 50.8589C32.8211 51.38 30.7999 51.6471 28.766 51.6471C27.2179 51.6471 25.6653 51.4896 24.1328 51.1797C22.6095 50.8716 21.1169 50.4118 19.6802 49.8059C19.2238 49.6138 19.0097 49.0876 19.2018 48.6312C19.394 48.1748 19.9202 47.9607 20.3766 48.1528C21.7048 48.7125 23.0815 49.1372 24.4847 49.4211C25.8793 49.7026 27.3131 49.8463 28.7666 49.8463C30.6533 49.8463 32.521 49.6005 34.3206 49.1216C36.1191 48.6433 37.8599 47.9284 39.4962 46.9919L39.4956 46.9913ZM51.7774 10.0308L47.5163 5.72406H21.1907L16.9303 10.0308V16.3748L23.4133 16.3287L25.4968 14.2451H30.6556L32.0444 12.8557H41.2174L43.2091 14.8469V28.2303L41.8659 29.5736L35.0084 29.5742L33.7581 30.8239H25.4962V17.751H21.1896L16.9291 22.0115V38.1408H47.5152L51.7762 33.8341V10.0308H51.7774Z" fill="#FFCC29"/>
</svg>
