<svg width="25" height="25" viewBox="0 0 25 25" fill="none" xmlns="http://www.w3.org/2000/svg">
<path d="M20.6973 0.751953H4.55504C2.45285 0.751953 0.75 2.4705 0.75 4.5884V20.8675C0.75 22.9854 2.45285 24.704 4.55504 24.704H20.6973C22.7995 24.704 24.5001 22.9854 24.5001 20.8675V4.5884C24.5023 2.46826 22.7995 0.751953 20.6973 0.751953Z" fill="#1677FF"/>
<path d="M20.3053 15.7928C19.3562 15.472 18.0797 14.9807 16.6595 14.4624C17.5121 12.966 18.1941 11.2631 18.6428 9.41221H13.9605V7.71161H19.695V6.76259H13.9605V3.92676H11.6205C11.21 3.92676 11.21 4.33508 11.21 4.33508V6.76035H5.41041V7.70937H11.21V9.40996H6.42V10.359H15.7082C15.3695 11.5391 14.9118 12.6496 14.3711 13.657C11.358 12.6541 8.14079 11.842 6.12161 12.3423C4.82933 12.6631 3.99698 13.2352 3.50789 13.8365C1.26435 16.5893 2.87296 20.7712 7.61132 20.7712C10.4135 20.7712 13.1125 19.1963 15.2035 16.6005C18.3242 18.1127 24.5007 20.7107 24.5007 20.7107V17.0088C24.5029 17.0088 23.7267 16.946 20.3053 15.7928ZM7.16934 19.1716C3.47423 19.1716 2.38163 16.2371 4.20787 14.6307C4.81811 14.0877 5.93091 13.823 6.5232 13.7647C8.71738 13.547 10.75 14.3906 13.1484 15.5707C11.4635 17.7873 9.3164 19.1716 7.16934 19.1716Z" fill="white"/>
</svg>
