<svg width="25" height="25" viewBox="0 0 25 25" fill="none" xmlns="http://www.w3.org/2000/svg">
<circle cx="12.875" cy="12.1841" r="10.6094" fill="url(#paint0_linear_423_1644)"/>
<path d="M14.7292 6.61722C14.9585 6.21696 14.8214 5.70574 14.423 5.47538C14.0247 5.24501 13.5158 5.38273 13.2865 5.78298L12.8866 6.4811L12.4866 5.78298C12.2573 5.38273 11.7485 5.24501 11.3501 5.47538C10.9517 5.70574 10.8146 6.21696 11.0439 6.61722L11.9262 8.15739L9.13538 13.029H6.887C6.42732 13.029 6.05469 13.4033 6.05469 13.8651C6.05469 14.327 6.42732 14.7013 6.887 14.7013H14.7183C14.787 14.5201 14.8593 14.2091 14.7824 13.9232C14.6668 13.4935 14.2391 13.029 13.5224 13.029H11.056L14.7292 6.61722Z" fill="white"/>
<path d="M9.56821 15.626C9.42621 15.4676 9.10804 15.2144 8.82905 15.131C8.40366 15.004 8.08117 15.0837 7.91847 15.1531L7.2985 16.2353C7.0692 16.6356 7.20628 17.1468 7.60468 17.3772C8.00307 17.6075 8.51192 17.4698 8.74122 17.0696L9.56821 15.626Z" fill="white"/>
<path d="M17.5958 14.7013H18.863C19.3227 14.7013 19.6953 14.327 19.6953 13.8651C19.6953 13.4033 19.3227 13.029 18.863 13.029H16.6377L14.1311 8.65349C13.9449 8.83127 13.5879 9.28543 13.5339 9.80035C13.4645 10.4623 13.5686 11.0198 13.8807 11.5656C14.93 13.4008 15.981 15.2352 17.0319 17.0696C17.2612 17.4698 17.77 17.6075 18.1684 17.3772C18.5668 17.1468 18.7039 16.6356 18.4746 16.2353L17.5958 14.7013Z" fill="white"/>
<defs>
<linearGradient id="paint0_linear_423_1644" x1="12.875" y1="1.57471" x2="12.875" y2="22.7935" gradientUnits="userSpaceOnUse">
<stop stop-color="#2AC9FA"/>
<stop offset="1" stop-color="#1F65EB"/>
</linearGradient>
</defs>
</svg>
