<svg width="24" height="25" viewBox="0 0 24 25" fill="none" xmlns="http://www.w3.org/2000/svg">
<path d="M22.5 12.1841C22.5 17.9801 17.8012 22.6841 12 22.6841C6.19875 22.6841 1.5 17.9801 1.5 12.1841C1.5 6.38283 6.19875 1.68408 12 1.68408C17.8012 1.68408 22.5 6.38283 22.5 12.1841Z" fill="#283544"/>
<path d="M16.9216 9.52712C16.8643 9.56055 15.5003 10.2659 15.5003 11.83C15.5646 13.6137 17.2216 14.2392 17.25 14.2392C17.2216 14.2726 16.9998 15.0913 16.343 15.9495C15.8217 16.6887 15.2432 17.4341 14.3646 17.4341C13.5289 17.4341 13.2289 16.9414 12.2646 16.9414C11.229 16.9414 10.936 17.4341 10.1431 17.4341C9.26458 17.4341 8.64315 16.6488 8.09345 15.9165C7.37932 14.958 6.77233 13.4539 6.7509 12.0097C6.73646 11.2444 6.89392 10.4921 7.29361 9.85312C7.85774 8.96107 8.86489 8.35551 9.96473 8.33554C10.8074 8.30906 11.5574 8.87468 12.0717 8.87468C12.5646 8.87468 13.486 8.33554 14.5286 8.33554C14.9786 8.33598 16.1786 8.4623 16.9216 9.52712ZM12.0005 8.18274C11.8505 7.48386 12.2646 6.78497 12.6503 6.33916C13.1432 5.80002 13.9216 5.43408 14.5929 5.43408C14.6357 6.13297 14.3641 6.8184 13.8787 7.3176C13.4432 7.85674 12.6932 8.26262 12.0005 8.18274Z" fill="white"/>
</svg>
