<svg width="25" height="24" viewBox="0 0 25 24" fill="none" xmlns="http://www.w3.org/2000/svg">
<path d="M23.251 12.2404C23.251 11.3771 23.1796 10.7471 23.0248 10.0938H12.9653V13.9904H18.87C18.751 14.9587 18.1082 16.4171 16.6796 17.397L16.6596 17.5275L19.8402 19.9422L20.0606 19.9637C22.0843 18.1321 23.251 15.437 23.251 12.2404Z" fill="#4285F4"/>
<path d="M12.9645 22.5074C15.8573 22.5074 18.2858 21.574 20.0597 19.964L16.6787 17.3973C15.774 18.0156 14.5597 18.4473 12.9645 18.4473C10.1312 18.4473 7.72645 16.6157 6.86922 14.084L6.74358 14.0944L3.43632 16.6028L3.39307 16.7206C5.15495 20.1506 8.77399 22.5074 12.9645 22.5074Z" fill="#34A853"/>
<path d="M6.86997 14.0838C6.64379 13.4305 6.51289 12.7304 6.51289 12.0071C6.51289 11.2837 6.64379 10.5838 6.85807 9.93045L6.85208 9.79131L3.50337 7.24268L3.39381 7.29375C2.66765 8.7171 2.25098 10.3155 2.25098 12.0071C2.25098 13.6988 2.66765 15.2971 3.39381 16.7204L6.86997 14.0838Z" fill="#FBBC05"/>
<path d="M12.9645 5.5673C14.9764 5.5673 16.3335 6.41896 17.1074 7.13067L20.1312 4.23732C18.2741 2.54566 15.8574 1.50732 12.9645 1.50732C8.77402 1.50732 5.15496 3.86397 3.39307 7.29394L6.85734 9.93065C7.72647 7.39899 10.1312 5.5673 12.9645 5.5673Z" fill="#EB4335"/>
</svg>
