<svg width="25" height="25" viewBox="0 0 25 25" fill="none" xmlns="http://www.w3.org/2000/svg">
<mask id="mask0_423_1729" style="mask-type:alpha" maskUnits="userSpaceOnUse" x="5" y="2" width="19" height="21">
<path d="M22.7863 11.44C23.7379 11.9636 23.7379 13.3157 22.7863 13.8393L7.5672 22.214C6.64039 22.724 5.5 22.0622 5.5 21.0143L5.5 4.26495C5.5 3.21708 6.64039 2.55526 7.5672 3.06526L22.7863 11.44Z" fill="#C4C4C4"/>
</mask>
<g mask="url(#mask0_423_1729)">
<path d="M5.97604 22.0496L15.4692 12.5031L6.13239 3.11377C5.7599 3.35256 5.5 3.76482 5.5 4.26507V21.0145C5.5 21.4413 5.68917 21.804 5.97604 22.0496Z" fill="url(#paint0_linear_423_1729)"/>
<path d="M22.7863 11.4398C23.7379 11.9635 23.7379 13.3156 22.7863 13.8392L18.9468 15.952L15.4692 12.5028L18.7695 9.22949L22.7863 11.4398Z" fill="url(#paint1_linear_423_1729)"/>
<path d="M18.9469 15.9526L15.4693 12.5034L5.97607 22.05C6.39354 22.4074 7.01792 22.5168 7.56726 22.2146L18.9469 15.9526Z" fill="url(#paint2_linear_423_1729)"/>
<path d="M6.13281 3.11364L15.4696 12.5029L18.7699 9.2296L7.5676 3.06526C7.08325 2.79874 6.54058 2.85224 6.13281 3.11364Z" fill="url(#paint3_linear_423_1729)"/>
</g>
<defs>
<linearGradient id="paint0_linear_423_1729" x1="12.0077" y1="8.79513" x2="5.55329" y2="15.3026" gradientUnits="userSpaceOnUse">
<stop stop-color="#00C3FF"/>
<stop offset="1" stop-color="#1BE2FA"/>
</linearGradient>
<linearGradient id="paint1_linear_423_1729" x1="15.4692" y1="12.5028" x2="24.0539" y2="12.5028" gradientUnits="userSpaceOnUse">
<stop stop-color="#FFCE00"/>
<stop offset="1" stop-color="#FFEA00"/>
</linearGradient>
<linearGradient id="paint2_linear_423_1729" x1="5.77699" y1="23.2153" x2="17.1963" y2="14.0603" gradientUnits="userSpaceOnUse">
<stop stop-color="#DE2453"/>
<stop offset="1" stop-color="#FE3944"/>
</linearGradient>
<linearGradient id="paint3_linear_423_1729" x1="6.33117" y1="2.06567" x2="17.1985" y2="10.942" gradientUnits="userSpaceOnUse">
<stop stop-color="#11D574"/>
<stop offset="1" stop-color="#01F176"/>
</linearGradient>
</defs>
</svg>
