<svg width="25" height="25" viewBox="0 0 25 25" fill="none" xmlns="http://www.w3.org/2000/svg">
<rect x="0.25" y="0.462891" width="24" height="24" rx="8" fill="white"/>
<path d="M2.398 17.4629V7.24289H5.562L7.9 12.9829H8.166L10.476 7.24289H13.696V17.4629H11.428V8.74089L11.75 8.76889L9.048 15.3909H6.864L4.148 8.76889L4.498 8.74089V17.4629H2.398ZM17.0238 14.5369V12.5489H18.8578C19.2125 12.5489 19.5158 12.4789 19.7678 12.3389C20.0292 12.1989 20.2298 12.0029 20.3698 11.7509C20.5098 11.4896 20.5798 11.1909 20.5798 10.8549C20.5798 10.5002 20.5098 10.1969 20.3698 9.94489C20.2298 9.68356 20.0292 9.48756 19.7678 9.35689C19.5158 9.21689 19.2125 9.14689 18.8578 9.14689H17.0238V7.15889H18.7458C19.6138 7.15889 20.3558 7.30356 20.9718 7.59289C21.5972 7.88222 22.0732 8.29289 22.3998 8.82489C22.7358 9.35689 22.9038 9.99622 22.9038 10.7429V10.9669C22.9038 11.6949 22.7358 12.3296 22.3998 12.8709C22.0732 13.4029 21.5972 13.8136 20.9718 14.1029C20.3558 14.3922 19.6138 14.5369 18.7458 14.5369H17.0238ZM15.0078 17.4629V7.15889H17.3038V17.4629H15.0078Z" fill="#363636"/>
</svg>
