<svg width="24" height="25" viewBox="0 0 24 25" fill="none" xmlns="http://www.w3.org/2000/svg">
<path d="M18.6364 7.85257C18.8701 6.32853 18.6364 5.31249 17.8182 4.37462C16.9222 3.31951 15.2859 2.88965 13.1822 2.88965H7.14363C6.71509 2.88965 6.36446 3.20227 6.28655 3.63213L3.75425 19.6542C3.71529 19.9668 3.94904 20.2404 4.26071 20.2404H8.00072L7.72801 21.8816C7.68905 22.1552 7.88384 22.3896 8.19551 22.3896H11.3511C11.7407 22.3896 12.0524 22.1161 12.0913 21.7644L12.7536 17.6221C12.7926 17.2704 13.1432 16.9969 13.4939 16.9969H13.9614C17.0001 16.9969 19.4155 15.7464 20.1168 12.1512C20.3895 10.6662 20.2726 9.37662 19.4934 8.5169C19.2597 8.24336 18.987 8.04797 18.6364 7.85257Z" fill="#009CDE"/>
<path d="M18.6364 7.85257C18.8701 6.32853 18.6364 5.31249 17.8182 4.37462C16.9222 3.31951 15.2859 2.88965 13.1822 2.88965H7.14363C6.71509 2.88965 6.36446 3.20227 6.28654 3.63213L3.75425 19.6542C3.71529 19.9668 3.94904 20.2403 4.26071 20.2403H8.00071L8.89676 14.4568C8.97468 14.0269 9.3253 13.7143 9.75384 13.7143H11.5459C15.0522 13.7143 17.7793 12.3075 18.5584 8.1652C18.5974 8.08704 18.5974 7.96981 18.6364 7.85257Z" fill="#012169"/>
<path d="M9.94864 7.89165C9.98759 7.6181 10.3382 7.2664 10.6888 7.2664H15.4418C15.9872 7.2664 16.5326 7.30548 17.0001 7.38364C17.4286 7.46179 18.2078 7.65718 18.5974 7.89165C18.8312 6.3676 18.5974 5.35157 17.7793 4.4137C16.9222 3.31951 15.2859 2.88965 13.1822 2.88965H7.14363C6.71509 2.88965 6.36446 3.20227 6.28654 3.63213L3.75425 19.6542C3.71529 19.9668 3.94904 20.2403 4.26071 20.2403H8.00071L9.94864 7.89165Z" fill="#003087"/>
</svg>
