<svg width="24" height="25" viewBox="0 0 24 25" fill="none" xmlns="http://www.w3.org/2000/svg">
<path fill-rule="evenodd" clip-rule="evenodd" d="M9.00592 4.47894C4.90643 4.41867 1.5 7.35778 1.5 10.8241C1.5 12.825 2.46457 14.5609 4.3317 15.8353C4.3317 15.8353 3.64739 18.0386 3.65712 18.0828C3.66686 18.127 3.81579 18.2139 3.86762 18.1855C3.91945 18.1571 6.34131 16.748 6.34131 16.748C8.07695 17.3293 9.13571 17.1862 9.31642 17.1618C9.32896 17.1601 9.33728 17.159 9.34129 17.1587C9.15606 16.6296 9.03468 15.8056 9.17289 15.029C9.89646 10.9646 14.1616 9.70032 16.4992 9.91631C15.8537 6.98104 13.0499 4.53835 9.00592 4.47894ZM6.15651 7.81494C5.61874 7.81494 5.18287 8.24031 5.18287 8.7651C5.18287 9.28988 5.61874 9.71525 6.15651 9.71525C6.69429 9.71525 7.13027 9.28988 7.13027 8.7651C7.13027 8.24031 6.69429 7.81494 6.15651 7.81494ZM12.0512 7.81494C11.5135 7.81494 11.0775 8.24031 11.0775 8.7651C11.0775 9.28988 11.5135 9.71525 12.0512 9.71525C12.589 9.71525 13.0249 9.28988 13.0249 8.7651C13.0249 8.24031 12.5891 7.81494 12.0512 7.81494Z" fill="#31CE6F"/>
<path fill-rule="evenodd" clip-rule="evenodd" d="M22.5 15.6474C22.5 12.6778 19.5565 10.4032 16.1418 10.4032C12.5262 10.4032 9.64244 12.7292 9.64244 15.6986C9.64244 18.6735 12.3853 21.1362 16.146 21.1564C16.9029 21.1605 18.0303 20.9707 18.7905 20.6608C18.7905 20.6608 20.6077 21.7359 20.7095 21.728C20.8112 21.72 20.8634 21.6414 20.8674 21.574C20.8715 21.5066 20.2884 19.8285 20.2884 19.8285C21.8488 18.6362 22.5 17.3225 22.5 15.6474ZM13.762 12.8672C13.2863 12.8672 12.9006 13.2441 12.9006 13.7093C12.9006 14.1742 13.2863 14.5513 13.762 14.5513C14.2378 14.5513 14.6235 14.1743 14.6235 13.7093C14.6235 13.2441 14.2378 12.8672 13.762 12.8672ZM18.3685 12.8672C17.8927 12.8672 17.507 13.2441 17.507 13.7093C17.507 14.1742 17.8927 14.5513 18.3685 14.5513C18.8444 14.5513 19.23 14.1743 19.23 13.7093C19.23 13.2441 18.8444 12.8672 18.3685 12.8672Z" fill="#31CE6F"/>
</svg>
