<svg width="198" height="43" viewBox="0 0 198 43" fill="none" xmlns="http://www.w3.org/2000/svg">
<rect x="0.15918" y="20.6626" width="7.31552" height="30.3637" rx="3.65776" transform="rotate(-43.7618 0.15918 20.6626)" fill="white"/>
<rect x="0.229248" y="6.00244" width="7.31552" height="50.4978" rx="3.65776" transform="rotate(-43.7618 0.229248 6.00244)" fill="white"/>
<circle cx="6.08192" cy="36.5136" r="4.47059" fill="white"/>
<circle cx="31.2797" cy="11.3159" r="9.3476" fill="white"/>
<path d="M51.8015 28.5285V14.5332H56.5816C58.2177 14.5332 59.563 14.8264 60.6225 15.4104C61.6796 15.9894 62.4656 16.8001 62.9781 17.8448C63.4955 18.8895 63.7567 20.119 63.7567 21.5309C63.7567 22.9452 63.4955 24.1772 62.9781 25.2268C62.4656 26.2716 61.6796 27.0847 60.6225 27.6612C59.563 28.2403 58.2177 28.5285 56.5816 28.5285H51.8015ZM54.3542 26.3307H56.4535C57.6288 26.3307 58.5553 26.141 59.2328 25.759C59.9154 25.3796 60.4008 24.8326 60.6915 24.123C60.9872 23.4084 61.135 22.5436 61.135 21.5309C61.135 20.533 60.9872 19.6755 60.6915 18.9585C60.4008 18.2365 59.9154 17.6822 59.2328 17.2928C58.5553 16.906 57.6288 16.7114 56.4535 16.7114H54.3542V26.3307Z" fill="white"/>
<path d="M68.9607 28.5285V14.5332H71.5134V28.5285H68.9607Z" fill="white"/>
<path d="M83.2912 29.0016C81.9754 29.0016 80.8272 28.7035 79.8416 28.1047C78.856 27.5085 78.0873 26.6732 77.5353 25.6014C76.9883 24.5246 76.7173 23.2729 76.7173 21.8463C76.7173 20.4073 76.9982 19.1408 77.5649 18.0419C78.1365 16.9454 78.9447 16.088 79.9894 15.4695C81.0342 14.8461 82.276 14.5332 83.715 14.5332C85.356 14.5332 86.7161 14.9274 87.7953 15.7159C88.872 16.4995 89.5718 17.5836 89.8946 18.9683H87.0364C86.8196 18.3179 86.4303 17.8103 85.8734 17.4407C85.3141 17.0736 84.5946 16.8888 83.715 16.8888C82.3154 16.8888 81.2337 17.3323 80.4724 18.2193C79.7159 19.1063 79.3389 20.3235 79.3389 21.866C79.3389 23.4183 79.7135 24.6158 80.4625 25.4634C81.2165 26.306 82.2415 26.7249 83.5376 26.7249C84.7991 26.7249 85.7502 26.3849 86.3958 25.6999C87.0462 25.01 87.4356 24.1082 87.5686 22.9895H84.0402V21.0676H90.1508V28.7651H87.7953L87.5883 26.922C87.1399 27.5922 86.5756 28.1097 85.8931 28.4694C85.2155 28.8242 84.3482 29.0016 83.2912 29.0016Z" fill="white"/>
<path d="M95.3547 28.5285V14.5332H97.9074V28.5285H95.3547Z" fill="white"/>
<path d="M110.129 29.0016C108.729 29.0016 107.507 28.6961 106.462 28.085C105.418 27.474 104.595 26.6264 103.998 25.5422C103.407 24.4531 103.111 23.1941 103.111 21.7674C103.111 20.3432 103.407 19.0866 103.998 18.0025C104.595 16.9183 105.418 16.0707 106.462 15.4597C107.507 14.8437 108.729 14.5332 110.129 14.5332C111.513 14.5332 112.733 14.8437 113.785 15.4597C114.835 16.0707 115.653 16.9183 116.239 18.0025C116.831 19.0866 117.126 20.3432 117.126 21.7674C117.126 23.1941 116.831 24.4531 116.239 25.5422C115.653 26.6264 114.835 27.474 113.785 28.085C112.733 28.6961 111.513 29.0016 110.129 29.0016ZM110.129 26.7052C111.462 26.7052 112.524 26.2666 113.312 25.3845C114.106 24.5049 114.505 23.3 114.505 21.7674C114.505 20.2373 114.106 19.0324 113.312 18.1503C112.524 17.2707 111.462 16.8296 110.129 16.8296C108.793 16.8296 107.726 17.2707 106.926 18.1503C106.13 19.0324 105.733 20.2373 105.733 21.7674C105.733 23.3 106.13 24.5049 106.926 25.3845C107.726 26.2666 108.793 26.7052 110.129 26.7052Z" fill="white"/>
<path d="M122.33 28.5285V14.5332H127.465C128.581 14.5332 129.505 14.7254 130.235 15.1048C130.964 15.4868 131.506 16.0017 131.861 16.6522C132.221 17.2978 132.403 18.0099 132.403 18.7909C132.403 19.6459 132.179 20.427 131.733 21.1366C131.284 21.8413 130.59 22.3538 129.643 22.6742L132.541 28.5285H129.604L127.002 23.0093H124.883V28.5285H122.33ZM124.883 21.1366H127.308C128.16 21.1366 128.786 20.9297 129.18 20.5157C129.579 20.1018 129.781 19.5548 129.781 18.8698C129.781 18.207 129.584 17.6748 129.19 17.2731C128.801 16.874 128.167 16.6719 127.288 16.6719H124.883V21.1366Z" fill="white"/>
<path d="M137.745 28.5285L142.86 14.5332H145.738L150.853 28.5285H148.133L147.019 25.286H141.559L140.416 28.5285H137.745ZM142.259 23.2951H146.319L144.279 17.4801L142.259 23.2951Z" fill="white"/>
<path d="M162.858 29.0016C161.443 29.0016 160.231 28.701 159.221 28.0949C158.208 27.4912 157.427 26.6461 156.875 25.5619C156.328 24.4729 156.057 23.2138 156.057 21.7871C156.057 20.363 156.328 19.1039 156.875 18.0123C157.427 16.9233 158.208 16.0707 159.221 15.4597C160.231 14.8437 161.443 14.5332 162.858 14.5332C164.533 14.5332 165.906 14.9521 166.977 15.7849C168.054 16.6202 168.724 17.7906 168.988 19.2936H166.169C165.997 18.5322 165.63 17.9335 165.065 17.4998C164.499 17.0662 163.75 16.8493 162.818 16.8493C161.522 16.8493 160.507 17.2904 159.773 18.17C159.043 19.0521 158.679 20.257 158.679 21.7871C158.679 23.3197 159.043 24.5221 159.773 25.3944C160.507 26.2691 161.522 26.7052 162.818 26.7052C163.75 26.7052 164.499 26.5032 165.065 26.0941C165.63 25.6876 165.997 25.1258 166.169 24.4088H168.988C168.724 25.8478 168.054 26.9762 166.977 27.7894C165.906 28.5975 164.533 29.0016 162.858 29.0016Z" fill="white"/>
<path d="M174.192 28.5285V14.5332H176.745V26.5278H182.944V28.5285H174.192Z" fill="white"/>
<path d="M188.148 28.5285V14.5332H197.284V16.5931H190.701V20.4369H196.683V22.4278H190.701V26.4687H197.284V28.5285H188.148Z" fill="white"/>
</svg>
